<svg width="511.99800000000005" height="511.99800000000005" xmlns="http://www.w3.org/2000/svg">

 <g>
  <title>background</title>
  <rect fill="none" id="canvas_background" height="402" width="582" y="-1" x="-1"/>
 </g>
 <g>
  <title>Layer 1</title>
  <g id="svg_1">
   <g id="svg_2">
    <g id="svg_3">
     <path id="svg_4" d="m280.982038,89.882876c-15.928429,8.258391 -34.948823,8.256314 -50.875868,0c-68.821308,-35.67838 -151.386527,14.587678 -151.386527,92.139443c0,48.80556 40.461339,250.553665 103.72237,250.553665c22.190575,0 42.385597,-22.637723 61.741006,-69.206159c4.184224,-10.067055 18.538637,-10.069824 22.722861,0c19.355409,46.568436 39.549739,69.206159 61.741006,69.206159c62.640839,0 103.72237,-200.195547 103.72237,-250.553665c-0.001384,-77.526154 -82.537532,-127.833051 -151.387219,-92.139443zm47.663464,324.225073c-13.124411,0 -29.411389,-21.076166 -44.684324,-57.826732c-10.495514,-25.249315 -46.33448,-25.261774 -56.834147,0.001384c-15.272243,36.748489 -31.559913,57.825348 -44.684324,57.825348c-40.455109,0 -85.252951,-174.774572 -85.252951,-232.084246c0,-63.812006 67.941548,-105.01813 124.416454,-75.7431c21.251288,11.016725 46.625195,11.016725 67.876483,0c56.416763,-29.24665 124.415069,11.870874 124.415069,75.7431c0.000692,57.063258 -44.767386,232.084246 -85.252259,232.084246z"/>
     <path id="svg_5" d="m380.037044,172.787955c-5.099977,0 -9.235056,4.133695 -9.235056,9.235056c0,15.418293 -6.338978,59.278232 -20.430363,108.50879c-1.40374,4.902014 1.433503,10.015834 6.336209,11.418189c4.88194,1.40374 10.011681,-1.418275 11.418881,-6.336209c14.583525,-50.948547 21.143308,-97.094062 21.143308,-113.590078c0.002077,-5.101361 -4.133002,-9.235748 -9.232979,-9.235748z"/>
     <path id="svg_6" d="m182.442706,121.397106c-33.428797,0 -60.626597,27.196415 -60.626597,60.625213c0,5.101361 4.135079,9.235056 9.235056,9.235056s9.235056,-4.133695 9.235056,-9.235056c0,-23.244764 18.910337,-42.155101 42.156486,-42.155101c5.099977,0 9.235056,-4.133695 9.235056,-9.235056s-4.135079,-9.235056 -9.235056,-9.235056z"/>
    </g>
   </g>
  </g>
 </g>
</svg>